<?xml version="1.0" encoding="iso-8859-1"?>
<!-- Generator: Adobe Illustrator 19.0.0, SVG Export Plug-In . SVG Version: 6.00 Build 0)  -->
<svg version="1.1" id="Layer_1" xmlns="http://www.w3.org/2000/svg" xmlns:xlink="http://www.w3.org/1999/xlink" x="0px" y="0px"
	 viewBox="0 0 329.987 329.987" style="enable-background:new 0 0 329.987 329.987;" xml:space="preserve">
<g id="XMLID_308_">
	<path id="XMLID_309_" d="M229.994,299.987h-160c-8.284,0-15,6.716-15,15c0,8.284,6.716,15,15,15h160c8.284,0,15-6.716,15-15
		C244.994,306.703,238.278,299.987,229.994,299.987z"/>
	<path id="XMLID_311_" d="M259.994,19.987h-15V15c0-8.284-6.716-15-15-15s-15,6.716-15,15v4.987h-15c-8.284,0-15,6.716-15,15
		c0,8.284,6.716,15,15,15h15v55.787c-17.006-15.98-39.878-25.787-65-25.787c-52.383,0-95,42.617-95,95s42.617,95,95,95
		c25.122,0,47.994-9.806,65-25.787v10.787c0,8.284,6.716,15,15,15s15-6.716,15-15v-205h15c8.284,0,15-6.716,15-15
		C274.994,26.703,268.278,19.987,259.994,19.987z M149.994,239.987c-35.841,0-65-29.159-65-65c0-35.841,29.159-65,65-65
		s65,29.159,65,65C214.994,210.829,185.835,239.987,149.994,239.987z"/>
</g>
<g>
</g>
<g>
</g>
<g>
</g>
<g>
</g>
<g>
</g>
<g>
</g>
<g>
</g>
<g>
</g>
<g>
</g>
<g>
</g>
<g>
</g>
<g>
</g>
<g>
</g>
<g>
</g>
<g>
</g>
</svg>
